# xmcd
# Track frame offsets:
# 150
# 19942
# 36767
# 56420
# 69627
# 88386
# 107173
# 124818
# 144999
# 159098
# 183367
# 200552
# 221755
# 240788
# 260146
#
# Disc length: 3701 seconds
# Revision: 0
# Processed by: cddbd v1.5.1PL0 Copyright (c) Steve Scherf et al.
# Submitted via: VisiTrax 2.9.10.228 - For more info visit www.synapsa.com
#
DISCID=d60e730f
DTITLE=Gill, Vince - CB90040
DYEAR=1900
DGENRE=Karaoke
TTITLE0=When I Call Your Name
TTITLE1=Never Knew Lonely
TTITLE2=Pocket Full Of Gold
TTITLE3=Liza Jane
TTITLE4=Look At Us
TTITLE5=I Still Believe In You
TTITLE6=Don't Let Our Love Start Slippin' Away
TTITLE7=Whenever You Come Around
TTITLE8=What The Cowgirls Do
TTITLE9=Go Rest High On That Mountain
TTITLE10=Pretty Little Adriana
TTITLE11=If You Ever Have Forever In Mind
TTITLE12=No Future In The Past
TTITLE13=When Love Finds You
TTITLE14=Tryin' To Get Over You
EXTD=
EXTT0=
EXTT1=
EXTT2=
EXTT3=
EXTT4=
EXTT5=
EXTT6=
EXTT7=
EXTT8=
EXTT9=
EXTT10=
EXTT11=
EXTT12=
EXTT13=
EXTT14=
PLAYORDER=
